<svg id="Ebene_1" xmlns="http://www.w3.org/2000/svg" viewBox="0 0 601.1 192.2"><style>.st0{fill:#3c3c3c}.st1{fill:#00a099}</style><path class="st0" d="M269 61.3c-1.2-2.6-3.3-5.5-6.3-8.6-.9-.9-3.5-3.3-11.2-9.8-9.4-7.9-11.8-10.5-12.8-11.8-1.6-2.1-2.3-4.3-2.3-6.6 0-1.9.6-4.6 3.5-7 2.1-1.8 4.8-2.7 7.9-2.7 4.8 0 9.4 2.4 13.7 7.2l6-5.3c-3.2-3.3-6.2-5.7-8.9-7.1C255.3 7.8 251.7 7 248 7c-5.8 0-10.4 1.8-14.3 5.4-3.8 3.6-5.6 7.7-5.6 12.6 0 3.4 1.2 6.8 3.5 10.4 2.5 3.8 8.5 9.6 17.6 17 5.4 4.4 8.7 7.5 10.4 9.8 2 2.7 3 5.5 3 8.3 0 2.3-.8 5.8-4.3 8.8-2.7 2.3-6 3.5-9.8 3.5-6 0-11.3-3.4-15.8-10l-7.2 4.3c2.5 4.2 5.4 7.4 8.6 9.5 4 2.6 8.5 3.9 14 3.9 6.9 0 12.4-1.9 16.6-5.9 4.1-3.9 6.1-8.7 6.1-14.8 0-3.1-.6-6-1.8-8.5zm51.5-52.1h-40.1v8.2h15.5v70.8h8.7V17.4h15.9zm20.1 0h8.4v79.1h-8.4zm40.2 0v79h32.7v-7.7h-24.1V9.2zm52.4 0v79h32.7v-7.7h-24.2V9.2zm88.5 8.1V9.2h-39.5v79h39.5V80h-31.1V49h31.1v-7.8h-31.1V17.3zM576 88.2h9l-19.7-36.9 4.4-1.6c4.7-1.7 8.2-4.1 10.5-7.3 2.3-3.2 3.4-7.1 3.4-12 0-4.7-1-8.7-3.1-12-2.1-3.3-4.7-5.6-8-7-2.4-1-7.7-2.3-19-2.3H540v79.1h8.5V51.3h8L576 88.2zm-27.6-70.9h8.6c5 0 8.4.4 10.5 1.2 2.4.9 4.4 2.4 5.9 4.5s2.2 4.5 2.2 7.3c0 5.7-2.6 8.7-4.7 10.2-2.7 1.9-6.9 2.8-13.2 2.8h-9.2v-26z"/><path class="st1" d="M249.4 98.2h16.8l33.5 87.2h-17.2l-6.8-18h-35.6l-7.1 18h-17.2l33.6-87.2zm8.5 23.1l-11.7 29.9h23.3l-11.6-29.9zm47.4-23.1h16.6v71.3h24.2v15.8h-40.8zm76 0h16.8l33.5 87.2h-17.2l-6.8-18H372l-7.1 18h-17.2l33.6-87.2zm8.5 23.1l-11.7 29.9h23.3l-11.6-29.9zm43.6-23.1H451c9.6 0 16.5.9 20.6 2.6 4.1 1.7 7.4 4.6 9.9 8.6s3.7 8.7 3.7 14.2c0 5.7-1.4 10.5-4.1 14.4-2.7 3.9-6.9 6.8-12.4 8.7l20.6 38.8h-18.1l-19.6-36.9H450v36.9h-16.6V98.2zm16.6 34h5.2c5.3 0 8.9-.7 10.9-2.1 2-1.4 3-3.7 3-6.9 0-1.9-.5-3.6-1.5-5s-2.3-2.4-4-3c-1.7-.6-4.7-.9-9.1-.9H450v17.9zm57.1-34h16.2l20.2 60.8 20.4-60.8H580l14.7 87.1h-16.1l-9.3-55-18.6 55h-14.6l-18.3-55-9.6 55H492zm-313.4 26.2C180.8 93.2 140 21.6 113.1 6.9v22.7c11.3 11.5 29.4 35.9 47.2 67.9 12.3 22.2 19 38.5 22 48.7l19.9 13.1c.7-8.1-2-19.4-8.5-34.9m-20.8 37c-13.4 3-37.3 5.7-70.2 5.7-34 0-57.6-2.9-69.8-6.1L15 173.2c18.2 10.9 66.5 12.2 87.7 12.2 16.8 0 68.8-.9 89.2-11.3l-19-12.7zM26.5 143.8c2.5-8.2 7.2-20.2 16.1-37.1 18.3-34.9 39.8-64.2 52.7-77.2V7C68.8 21.7 28 91 14.6 123.4c-6.2 14.9-9 26.1-8.5 34.3l20.4-13.9z"/><path class="st0" d="M144.8 126.7l10.4 6.8c.4-4.2-1.1-10.1-4.4-18.2-6.7-16.3-27.9-53.5-41.9-61.1V66c5.9 6 15.3 18.7 24.5 35.4 6.4 11.6 9.9 20 11.4 25.3m-4.8 8c-7 1.5-19.4 3-36.5 3-17.7 0-30-1.5-36.3-3.2l-9.3 6.3c7.4 4.4 24.2 5.8 36.6 6.2.3 4.5 4.5 8.1 9.8 8.1 5.3 0 9.6-3.6 9.8-8.2 11.7-.4 28.2-1.7 35.9-5.7l-10-6.5zm-67.9-28.5C81.6 88.1 92.8 72.8 99.5 66V54.3c-13.8 7.6-35 43.7-42 60.6-3.2 7.8-4.7 13.6-4.4 17.8l10.6-7.2c1.3-4.2 3.8-10.5 8.4-19.3"/></svg>